<mxfile host="Electron" agent="Mozilla/5.0 (Windows NT 10.0; Win64; x64) AppleWebKit/537.36 (KHTML, like Gecko) draw.io/28.1.2 Chrome/138.0.7204.243 Electron/37.4.0 Safari/537.36" version="28.1.2">
  <diagram name="Page-1" id="Pdlwb4AoUmQIS2xpMOZw">
    <mxGraphModel dx="872" dy="668" grid="1" gridSize="10" guides="1" tooltips="1" connect="1" arrows="1" fold="1" page="1" pageScale="1" pageWidth="850" pageHeight="1100" math="0" shadow="0">
      <root>
        <mxCell id="0" />
        <mxCell id="1" parent="0" />
        <mxCell id="K0s_FNAEAg_kgB0jsf-3-4" value="" style="edgeStyle=orthogonalEdgeStyle;rounded=0;orthogonalLoop=1;jettySize=auto;html=1;" edge="1" parent="1" source="K0s_FNAEAg_kgB0jsf-3-1" target="K0s_FNAEAg_kgB0jsf-3-2">
          <mxGeometry relative="1" as="geometry" />
        </mxCell>
        <mxCell id="K0s_FNAEAg_kgB0jsf-3-1" value="Read the question" style="rounded=0;whiteSpace=wrap;html=1;" vertex="1" parent="1">
          <mxGeometry x="300" y="170" width="120" height="60" as="geometry" />
        </mxCell>
        <mxCell id="K0s_FNAEAg_kgB0jsf-3-8" value="" style="edgeStyle=orthogonalEdgeStyle;rounded=0;orthogonalLoop=1;jettySize=auto;html=1;" edge="1" parent="1" source="K0s_FNAEAg_kgB0jsf-3-2" target="K0s_FNAEAg_kgB0jsf-3-5">
          <mxGeometry relative="1" as="geometry" />
        </mxCell>
        <mxCell id="K0s_FNAEAg_kgB0jsf-3-2" value="immediately&amp;nbsp;&lt;br&gt;&lt;div&gt;understood&lt;/div&gt;" style="rounded=0;whiteSpace=wrap;html=1;" vertex="1" parent="1">
          <mxGeometry x="300" y="260" width="120" height="60" as="geometry" />
        </mxCell>
        <mxCell id="K0s_FNAEAg_kgB0jsf-3-9" value="" style="edgeStyle=orthogonalEdgeStyle;rounded=0;orthogonalLoop=1;jettySize=auto;html=1;" edge="1" parent="1" source="K0s_FNAEAg_kgB0jsf-3-5" target="K0s_FNAEAg_kgB0jsf-3-7">
          <mxGeometry relative="1" as="geometry" />
        </mxCell>
        <mxCell id="K0s_FNAEAg_kgB0jsf-3-5" value="wrote code" style="rounded=0;whiteSpace=wrap;html=1;" vertex="1" parent="1">
          <mxGeometry x="300" y="350" width="120" height="60" as="geometry" />
        </mxCell>
        <mxCell id="K0s_FNAEAg_kgB0jsf-3-11" value="" style="edgeStyle=orthogonalEdgeStyle;rounded=0;orthogonalLoop=1;jettySize=auto;html=1;" edge="1" parent="1" source="K0s_FNAEAg_kgB0jsf-3-7" target="K0s_FNAEAg_kgB0jsf-3-10">
          <mxGeometry relative="1" as="geometry" />
        </mxCell>
        <mxCell id="K0s_FNAEAg_kgB0jsf-3-7" value="made code to&lt;div&gt;remove punctuation&lt;/div&gt;" style="rounded=0;whiteSpace=wrap;html=1;" vertex="1" parent="1">
          <mxGeometry x="300" y="450" width="120" height="60" as="geometry" />
        </mxCell>
        <mxCell id="K0s_FNAEAg_kgB0jsf-3-13" value="" style="edgeStyle=orthogonalEdgeStyle;rounded=0;orthogonalLoop=1;jettySize=auto;html=1;" edge="1" parent="1" source="K0s_FNAEAg_kgB0jsf-3-10" target="K0s_FNAEAg_kgB0jsf-3-12">
          <mxGeometry relative="1" as="geometry" />
        </mxCell>
        <mxCell id="K0s_FNAEAg_kgB0jsf-3-10" value="learned how to&lt;div&gt;iterate through&lt;/div&gt;&lt;div&gt;a hashmap&lt;/div&gt;" style="rounded=0;whiteSpace=wrap;html=1;" vertex="1" parent="1">
          <mxGeometry x="300" y="540" width="120" height="60" as="geometry" />
        </mxCell>
        <mxCell id="K0s_FNAEAg_kgB0jsf-3-12" value="created a way&lt;div&gt;to see all words&lt;/div&gt;" style="rounded=0;whiteSpace=wrap;html=1;" vertex="1" parent="1">
          <mxGeometry x="300" y="630" width="120" height="60" as="geometry" />
        </mxCell>
      </root>
    </mxGraphModel>
  </diagram>
</mxfile>
